<svg width="55" height="55" viewBox="0 0 55 55" fill="none" xmlns="http://www.w3.org/2000/svg">
<path d="M32.823 44.1201H28.6552C28.062 44.1201 27.5811 44.6009 27.5811 45.1942C27.5811 45.7875 28.062 46.2683 28.6552 46.2683H32.823C33.4663 46.2683 33.9896 46.7916 33.9896 47.4348C33.9896 48.0781 33.4664 48.6013 32.823 48.6013H21.6035C19.9169 48.6013 18.331 47.8578 17.2525 46.5612L14.5694 43.3362C13.1297 41.6056 11.0345 40.5921 8.79257 40.5279V34.1829H12.7474C14.6978 34.1829 16.5444 34.9288 17.9475 36.2832L23.7384 41.8729C24.1477 42.2681 24.1669 42.9298 23.7809 43.3479C23.3875 43.7739 22.7198 43.8017 22.2924 43.41L17.746 39.2424C17.3089 38.8416 16.6293 38.8711 16.2285 39.3084C15.8276 39.7457 15.8572 40.4251 16.2945 40.8259L20.8409 44.9935C21.454 45.5555 22.2299 45.8331 23.0039 45.8331C23.868 45.8331 24.7297 45.4871 25.3595 44.8048C26.531 43.5356 26.4731 41.5271 25.2303 40.3274L19.4395 34.7377C17.6338 32.9947 15.2572 32.0348 12.7474 32.0348H8.58396C8.17984 31.0783 7.23206 30.4053 6.13013 30.4053H1.07411C0.480927 30.4053 0 30.8861 0 31.4794V39.3337C0 39.9269 0.480927 40.4078 1.07411 40.4078C1.66729 40.4078 2.14822 39.927 2.14822 39.3337V32.5534H6.13023C6.41383 32.5534 6.64446 32.7841 6.64446 33.0676V41.6767C6.64446 41.9602 6.41383 42.1909 6.13023 42.1909H5.01466C4.42148 42.1909 3.94055 42.6718 3.94055 43.265C3.94055 43.8582 4.42148 44.3392 5.01466 44.3392H6.13013C7.24688 44.3392 8.20455 43.6478 8.59932 42.6708C10.2738 42.6803 11.8464 43.4219 12.918 44.7101L15.6011 47.9351C17.0891 49.7238 19.2768 50.7495 21.6035 50.7495H32.823C34.6507 50.7495 36.1377 49.2626 36.1377 47.4348C36.1377 45.6071 34.6507 44.1201 32.823 44.1201Z" fill="white"/>
<path d="M53.9257 14.1726C53.3325 14.1726 52.8516 14.6534 52.8516 15.2467V22.4466H48.8696C48.586 22.4466 48.3553 22.2159 48.3553 21.9324V13.3233C48.3553 13.0398 48.586 12.8091 48.8696 12.8091H49.9063C50.4995 12.8091 50.9804 12.3283 50.9804 11.735C50.9804 11.1418 50.4995 10.6609 49.9063 10.6609H48.8696C47.7528 10.6609 46.7951 11.3522 46.4004 12.3292C44.7259 12.3197 43.1533 11.5781 42.0817 10.2899L39.3986 7.06504C37.9107 5.27636 35.7229 4.25049 33.3961 4.25049H22.1768C20.3491 4.25049 18.8621 5.73742 18.8621 7.56509C18.8621 9.39276 20.3491 10.8797 22.1768 10.8797H26.7645C27.3577 10.8797 27.8386 10.3989 27.8386 9.80558C27.8386 9.21229 27.3577 8.73148 26.7645 8.73148H22.1768C21.5335 8.73148 21.0102 8.20822 21.0102 7.56498C21.0102 6.92185 21.5334 6.39849 22.1768 6.39849H33.3962C35.0829 6.39849 36.6688 7.14206 37.7473 8.43864L40.4304 11.6636C41.87 13.3941 43.9653 14.4076 46.2072 14.4719V20.8169H42.2524C40.302 20.8169 38.4554 20.071 37.0523 18.7166L31.2614 13.127C30.852 12.7318 30.8329 12.0701 31.2189 11.6519C31.6123 11.2258 32.28 11.1981 32.7074 11.5899L37.254 15.7574C37.6913 16.1582 38.3705 16.1287 38.7715 15.6914C39.1723 15.2541 39.1427 14.5747 38.7054 14.1739L34.1589 10.0065C32.8613 8.81698 30.8344 8.90174 29.6403 10.1951C28.4688 11.4644 28.5267 13.473 29.7694 14.6725L35.5603 20.2622C37.366 22.0052 39.7426 22.9652 42.2524 22.9652H46.4158C46.82 23.9217 47.7677 24.5946 48.8697 24.5946H53.9258C54.519 24.5946 54.9999 24.1138 54.9999 23.5205V15.2465C54.9998 14.6534 54.5189 14.1726 53.9257 14.1726Z" fill="white"/>
<path d="M34.6797 40.7818C34.4354 40.2412 33.8005 40.0001 33.2604 40.2443C32.7164 40.4811 32.4676 41.114 32.7045 41.6578C32.8804 42.062 33.2753 42.3033 33.6898 42.3033C33.833 42.3033 33.9784 42.2745 34.1181 42.2137C34.1226 42.2118 34.1368 42.2054 34.1412 42.2035C34.6818 41.9593 34.9238 41.3224 34.6797 40.7818Z" fill="white"/>
<path d="M37.3498 38.9733C36.9987 38.4964 36.3237 38.3971 35.8462 38.7467C35.3677 39.0971 35.2637 39.7692 35.6141 40.2478C35.8245 40.5351 36.1507 40.6875 36.4815 40.6875C36.7018 40.6875 36.924 40.62 37.1152 40.48C37.1169 40.4788 37.127 40.4713 37.1286 40.4701C37.6044 40.1178 37.7009 39.4501 37.3498 38.9733Z" fill="white"/>
<path d="M31.6773 41.9879C31.555 41.4094 30.987 41.039 30.408 41.1587C29.8296 41.2735 29.4515 41.8337 29.5624 42.4138C29.6608 42.9284 30.111 43.2864 30.6162 43.2864C30.683 43.2864 30.751 43.28 30.819 43.267C30.826 43.2657 30.8436 43.2621 30.8507 43.2606C31.4308 43.1376 31.8001 42.5681 31.6773 41.9879Z" fill="white"/>
<path d="M39.5934 36.6373C39.153 36.2401 38.474 36.275 38.0765 36.7155C38.0712 36.7214 38.0589 36.7354 38.0537 36.7413C37.6662 37.1905 37.7162 37.8687 38.1653 38.2562C38.3683 38.4313 38.6179 38.517 38.8664 38.517C39.1647 38.517 39.4613 38.3935 39.6733 38.1524C40.0689 37.7119 40.0333 37.034 39.5934 36.6373ZM38.9936 37.543L38.8741 37.4349L39.0034 37.5516L38.9936 37.543Z" fill="white"/>
<path d="M42.3278 30.8163C41.7602 30.6441 41.1597 30.9679 40.9875 31.5357C40.813 32.1026 41.1312 32.7037 41.6982 32.8781C41.8034 32.9106 41.9097 32.9259 42.0143 32.9259C42.4735 32.9259 42.8985 32.6292 43.0405 32.1674L43.045 32.1527C43.2171 31.585 42.8954 30.9884 42.3278 30.8163Z" fill="white"/>
<path d="M43.7036 25.273C43.7012 25.2594 43.6986 25.2457 43.6957 25.2321C43.5744 24.6516 43.0055 24.2802 42.4252 24.4013C41.847 24.5218 41.4752 25.0873 41.5916 25.6654C41.6902 26.1779 42.1393 26.5366 42.645 26.5366C42.7079 26.5366 42.7717 26.5311 42.8356 26.5197C43.4195 26.4151 43.8081 25.857 43.7036 25.273Z" fill="white"/>
<path d="M42.7182 27.6033C42.1292 27.5513 41.606 27.988 41.5539 28.5788C41.553 28.5892 41.5515 28.6104 41.5508 28.6208C41.516 29.213 41.9677 29.7214 42.56 29.7562C42.5814 29.7575 42.6027 29.7581 42.624 29.7581C43.1832 29.7581 43.6532 29.3256 43.6943 28.7624C43.7433 28.1737 43.3074 27.6553 42.7182 27.6033Z" fill="white"/>
<path d="M41.2756 33.8726C40.76 33.5803 40.1041 33.7615 39.8117 34.2776L39.7968 34.3045C39.5139 34.8259 39.7048 35.4826 40.2261 35.7654C40.3902 35.8543 40.5667 35.8966 40.7406 35.8966C41.1197 35.8966 41.4859 35.6955 41.6798 35.338L40.746 34.8071L41.6805 35.3367C41.973 34.8205 41.7918 34.1651 41.2756 33.8726Z" fill="white"/>
<path d="M21.7949 13.4168C21.5297 12.8862 20.8842 12.671 20.3539 12.9365L20.3444 12.9412C19.8137 13.2065 19.6035 13.8492 19.8688 14.3798C20.0567 14.7556 20.4374 14.972 20.8321 14.972C20.9947 14.972 21.1597 14.9353 21.3145 14.8579C21.8451 14.5927 22.0601 13.9475 21.7949 13.4168Z" fill="white"/>
<path d="M24.903 12.5214C24.7633 11.9451 24.1834 11.5908 23.606 11.7307C23.6011 11.7319 23.5858 11.7358 23.5809 11.737C23.0064 11.8851 22.6585 12.4713 22.8064 13.0457C22.9313 13.5303 23.3661 13.8525 23.844 13.8525C23.9325 13.8525 24.0225 13.8414 24.1123 13.8183C24.6887 13.6786 25.0428 13.098 24.903 12.5214Z" fill="white"/>
<path d="M18.9553 14.966C18.5838 14.5044 17.9075 14.4319 17.4454 14.8025L18.1113 15.6452L17.4422 14.805C16.9781 15.1745 16.9015 15.8502 17.2709 16.3142C17.4832 16.5807 17.7961 16.7193 18.112 16.7193C18.3464 16.7193 18.5827 16.6429 18.7804 16.4855L18.7946 16.4741C19.2554 16.1019 19.3268 15.4276 18.9553 14.966Z" fill="white"/>
<path d="M13.228 22.6079C12.6556 22.4519 12.0652 22.7891 11.9092 23.3615C11.9065 23.3712 11.9013 23.3916 11.8989 23.4014C11.7592 23.9778 12.1133 24.5573 12.6895 24.6973C12.7746 24.7179 12.8596 24.7278 12.9434 24.7278C13.4253 24.7278 13.8632 24.4008 13.9852 23.9134C14.1325 23.3454 13.7959 22.7628 13.228 22.6079Z" fill="white"/>
<path d="M12.5434 25.7639C11.9497 25.7309 11.4433 26.182 11.4089 26.7741C11.4081 26.788 11.4075 26.8017 11.4071 26.8155C11.3897 27.4081 11.856 27.9019 12.4488 27.9196C12.4597 27.92 12.4705 27.9202 12.4813 27.9202C13.0571 27.9202 13.5329 27.4633 13.5541 26.885C13.581 26.2985 13.1311 25.7981 12.5434 25.7639Z" fill="white"/>
<path d="M14.5799 19.673C14.0545 19.3974 13.4053 19.5998 13.1298 20.1251L13.1123 20.1597C12.8505 20.6918 13.0701 21.3344 13.602 21.5964C13.7543 21.6715 13.9158 21.7069 14.0751 21.7069C14.4695 21.7069 14.8493 21.4886 15.0375 21.1127C15.305 20.5892 15.1017 19.9468 14.5799 19.673Z" fill="white"/>
<path d="M16.5193 17.0885C16.0629 16.7096 15.3857 16.7725 15.0068 17.2288C15.0017 17.2351 14.9898 17.2497 14.9847 17.2561C14.6164 17.7209 14.6952 18.3953 15.1598 18.7637C15.357 18.9203 15.5923 18.9961 15.826 18.9961C16.1411 18.9961 16.4535 18.8582 16.6656 18.5937C17.0377 18.1375 16.9733 17.4654 16.5193 17.0885Z" fill="white"/>
<path d="M13.7577 29.8663C13.6532 29.2824 13.0947 28.8938 12.5111 28.9985C11.9271 29.1031 11.5386 29.6612 11.6431 30.2451L11.645 30.2556C11.738 30.7748 12.1889 31.1354 12.6982 31.1354C12.7617 31.1354 12.826 31.1298 12.8907 31.1182C13.4746 31.0137 13.8623 30.4503 13.7577 29.8663Z" fill="white"/>
<path d="M31.1876 21.7124C29.7895 21.7124 28.4941 22.2889 27.571 23.2619C26.6479 22.2889 25.3526 21.7124 23.9545 21.7124C21.2042 21.7124 18.9667 23.9499 18.9667 26.7002C18.9667 28.1842 19.6212 29.5809 20.7622 30.5323C20.7691 30.5381 20.7762 30.5438 20.7833 30.5494L26.9043 35.3954C27.0996 35.5501 27.3353 35.6274 27.5709 35.6274C27.8077 35.6274 28.0445 35.5494 28.2402 35.3934L34.6205 30.3113C34.6517 30.2865 34.6815 30.2598 34.7098 30.2317C35.655 29.2891 36.1754 28.0349 36.1754 26.7002C36.1754 23.9499 33.9379 21.7124 31.1876 21.7124ZM33.2316 28.6715L27.5691 33.1819L22.1282 28.8744C21.4841 28.3326 21.1149 27.541 21.1149 26.7004C21.1148 25.1345 22.3887 23.8606 23.9545 23.8606C25.1072 23.8606 26.1373 24.5491 26.5788 25.6145C26.7452 26.0157 27.1367 26.2774 27.571 26.2774C28.0054 26.2774 28.3969 26.0158 28.5633 25.6145C29.0048 24.5491 30.0349 23.8606 31.1876 23.8606C32.7534 23.8606 34.0273 25.1345 34.0273 26.7003C34.0273 27.4417 33.7451 28.1395 33.2316 28.6715Z" fill="white"/>
<path d="M1.07389 44.3355C1.66503 44.3355 2.14424 43.8563 2.14424 43.2652C2.14424 42.674 1.66503 42.1948 1.07389 42.1948C0.482752 42.1948 0.00354004 42.674 0.00354004 43.2652C0.00354004 43.8563 0.482752 44.3355 1.07389 44.3355Z" fill="white"/>
<path d="M53.9259 12.8053C54.5171 12.8053 54.9963 12.326 54.9963 11.7349C54.9963 11.1438 54.5171 10.6646 53.9259 10.6646C53.3348 10.6646 52.8556 11.1438 52.8556 11.7349C52.8556 12.326 53.3348 12.8053 53.9259 12.8053Z" fill="white"/>
</svg>
