<svg width="36" height="30" viewBox="0 0 36 30" fill="none" xmlns="http://www.w3.org/2000/svg">
<path d="M1.40744 5.52953C1.5994 5.19189 2.02887 5.07391 2.36629 5.26586C2.70387 5.45782 2.82192 5.88714 2.6299 6.22471C0.541195 9.8977 1.17176 14.5524 4.16341 17.544L4.69659 18.0772C4.82541 17.7392 5.02495 17.4221 5.29685 17.1503L12.5219 9.92533C12.0494 9.69288 11.6128 9.38273 11.2295 8.99945L9.84382 7.61367C9.56925 7.3391 9.56925 6.89381 9.84382 6.61924C10.1185 6.34467 10.5636 6.34467 10.8383 6.61924L12.224 8.00503C12.8751 8.65598 13.7405 9.0145 14.6611 9.0145H17.4312C17.6177 9.0145 17.7965 9.08861 17.9285 9.22045L20.0491 11.3411C20.6788 11.9709 21.7035 11.9709 22.3332 11.3411C22.963 10.7114 22.963 9.68669 22.3332 9.05697L17.4918 4.2156C14.5331 1.25685 9.91406 0.606183 6.25957 2.63329C5.91996 2.82152 5.4919 2.6991 5.30353 2.35943C5.11516 2.01982 5.23779 1.59175 5.5774 1.40339C7.59312 0.285488 9.96799 -0.16191 12.265 0.14402C14.4146 0.430262 16.3821 1.33033 17.9949 2.75852C19.9763 1.00204 22.4986 0.0415039 25.1691 0.0415039C28.0621 0.0415039 30.782 1.16812 32.8277 3.21379C34.8735 5.25946 36 7.9795 36 10.8725C36 13.7656 34.8734 16.4854 32.8277 18.5312L32.5627 18.7962C32.5166 18.8422 32.4654 18.8799 32.4113 18.9105C32.3643 19.5188 32.1094 20.114 31.6451 20.5782C31.1284 21.0948 30.45 21.353 29.7714 21.353C29.7362 21.353 29.7009 21.3519 29.6657 21.3505C29.6671 21.3861 29.6683 21.4216 29.6683 21.4574C29.6683 22.1652 29.3927 22.8306 28.8922 23.3311C28.3755 23.8478 27.6971 24.106 27.0185 24.106C26.9833 24.106 26.948 24.1048 26.9127 24.1034C26.9141 24.139 26.9153 24.1746 26.9153 24.2104C26.9153 24.9181 26.6397 25.5836 26.1392 26.0841C25.6225 26.6006 24.944 26.8589 24.2655 26.8589C24.2298 26.8589 24.1942 26.8578 24.1585 26.8564C24.1871 27.5701 23.9299 28.2933 23.3862 28.8371C22.8857 29.3376 22.2202 29.6132 21.5125 29.6132C20.8047 29.6132 20.1393 29.3376 19.6388 28.8371L18.6561 27.8543L17.3287 29.1816C16.8282 29.6822 16.1627 29.9578 15.455 29.9578C14.7472 29.9578 14.0818 29.6822 13.5813 29.1817C13.031 28.6314 12.774 27.8973 12.8098 27.1752C12.7657 27.1773 12.7214 27.1786 12.6771 27.1786C11.9985 27.1786 11.3199 26.9204 10.8033 26.4037C10.2599 25.8603 10.0027 25.1376 10.031 24.4242C9.99541 24.4256 9.95984 24.4268 9.92405 24.4268C9.21628 24.4268 8.55084 24.1512 8.05036 23.6507C7.50691 23.1072 7.24978 22.3846 7.27805 21.6712C7.24247 21.6726 7.20689 21.6738 7.1711 21.6738C6.46334 21.6738 5.7979 21.3981 5.29741 20.8977C5.04323 20.6435 4.85184 20.3499 4.72275 20.0365C4.65434 20.0031 4.59 19.9588 4.53312 19.902L3.16948 18.5383C-0.268875 15.1007 -0.993233 9.75117 1.40744 5.52953ZM29.7714 19.9479C30.1035 19.9479 30.4158 19.8186 30.6507 19.5837C30.8855 19.3488 31.0149 19.0366 31.0149 18.7044C31.0149 18.3723 30.8856 18.06 30.6507 17.8251L29.4389 16.6134C29.2041 16.3785 28.8918 16.2492 28.5596 16.2492C28.2275 16.2492 27.9152 16.3785 27.6803 16.6134C27.1955 17.0983 27.1955 17.8871 27.6803 18.3719L28.8921 19.5837C29.127 19.8185 29.4391 19.9479 29.7714 19.9479ZM27.8975 22.3368C28.1325 22.1019 28.2618 21.7896 28.2618 21.4575C28.2618 21.1253 28.1325 20.8131 27.8975 20.5782L26.6857 19.3664C26.6857 19.3664 26.6857 19.3664 26.6857 19.3663C26.4509 19.1315 26.1386 19.0021 25.8064 19.0021C25.4744 19.0021 25.162 19.1314 24.9272 19.3663C24.4423 19.8512 24.4423 20.64 24.9272 21.1248L26.139 22.3367C26.6239 22.8215 27.4129 22.8215 27.8975 22.3368ZM25.1446 25.0897C25.3795 24.8549 25.5088 24.5425 25.5088 24.2104C25.5088 23.8783 25.3795 23.566 25.1446 23.3312L23.9328 22.1193C23.9328 22.1193 23.9328 22.1193 23.9328 22.1193C23.6979 21.8844 23.3857 21.7551 23.0535 21.7551C22.7213 21.7551 22.4091 21.8844 22.1742 22.1193C21.6894 22.6042 21.6894 23.3931 22.1742 23.8779L23.3861 25.0897C23.8709 25.5746 24.6597 25.5746 25.1446 25.0897ZM19.4212 26.6309L20.6331 27.8428C20.8679 28.0777 21.1802 28.2071 21.5123 28.2071C21.8444 28.2071 22.1567 28.0778 22.3916 27.8428C22.8765 27.3579 22.8765 26.5691 22.3916 26.0843L21.1797 24.8724C21.1797 24.8724 21.1797 24.8724 21.1797 24.8724C20.9449 24.6375 20.6326 24.5081 20.3005 24.5081C19.9684 24.5081 19.6561 24.6374 19.4212 24.8724C19.1863 25.1072 19.057 25.4195 19.057 25.7516C19.0569 26.0839 19.1863 26.3961 19.4212 26.6309ZM6.29135 19.9032C6.5262 20.1381 6.83852 20.2675 7.17061 20.2675C7.50277 20.2675 7.81502 20.1381 8.04987 19.9032L10.9768 16.9763C10.9769 16.9762 10.977 16.9761 10.9771 16.976L13.7299 14.2233C14.0045 13.9487 14.4496 13.9487 14.7244 14.2233C14.9989 14.4978 14.9989 14.9431 14.7244 15.2177L9.04437 20.8975C8.55949 21.3825 8.55949 22.1713 9.04437 22.6561C9.27921 22.891 9.59154 23.0203 9.92362 23.0203C10.2558 23.0203 10.568 22.891 10.8029 22.6561L16.4829 16.9762C16.7575 16.7017 17.2027 16.7017 17.4774 16.9762C17.7519 17.2508 17.7519 17.6961 17.4774 17.9707L14.7249 20.7231C14.7247 20.7233 14.7245 20.7236 14.7243 20.7238L11.7973 23.6506C11.3124 24.1356 11.3124 24.9245 11.7972 25.4093C12.2822 25.8941 13.0712 25.8941 13.5558 25.4093L16.4828 22.4823C16.5369 22.4282 16.5978 22.3852 16.6625 22.3524L17.4973 21.5176C17.772 21.2431 18.2171 21.2431 18.4918 21.5176C18.7664 21.7922 18.7664 22.2375 18.4918 22.5121L14.5753 26.4285C14.0904 26.9135 14.0904 27.7023 14.5753 28.1871C14.8101 28.422 15.1225 28.5513 15.4545 28.5513C15.7867 28.5513 16.099 28.422 16.3338 28.1871L17.8241 26.6968C17.7106 26.3989 17.6505 26.0799 17.6505 25.7515C17.6505 25.0438 17.9262 24.3783 18.4267 23.8779C18.9272 23.3774 19.5926 23.1017 20.3003 23.1017C20.3361 23.1017 20.3717 23.1029 20.4073 23.1044C20.3791 22.391 20.6362 21.6683 21.1796 21.1248C21.6802 20.6244 22.3456 20.3487 23.0533 20.3487C23.0891 20.3487 23.1247 20.3499 23.1602 20.3513C23.132 19.6379 23.3891 18.9153 23.9325 18.3718C24.4331 17.8713 25.0985 17.5957 25.8062 17.5957C25.842 17.5957 25.8776 17.5969 25.9132 17.5983C25.8849 16.8849 26.142 16.1623 26.6855 15.6188C27.7187 14.5856 29.3999 14.5857 30.4331 15.6188L31.6448 16.8306C31.7977 16.9834 31.9273 17.1507 32.035 17.3278C33.6867 15.5734 34.5933 13.2927 34.5933 10.8724C34.5933 8.35497 33.613 5.98818 31.8329 4.20815C30.0528 2.42812 27.686 1.44775 25.1686 1.44775C22.881 1.44775 20.7177 2.25747 19.0062 3.74121L23.3274 8.0624C23.898 8.63313 24.2123 9.39187 24.2123 10.1989C24.2123 11.006 23.898 11.7648 23.3274 12.3355C22.7383 12.9245 21.9645 13.219 21.1908 13.219C20.4171 13.219 19.6433 12.9246 19.0542 12.3355L17.1394 10.4208H14.6607C14.456 10.4208 14.2536 10.4068 14.0536 10.3819L6.29093 18.1445C5.80655 18.6296 5.80655 19.4185 6.29135 19.9032Z" fill="#FFED8F"/>
</svg>
