<svg width="10" height="14" viewBox="0 0 10 14" fill="none" xmlns="http://www.w3.org/2000/svg">
<path d="M3.65126 7.00296L8.88863 1.76537C9.03284 1.6215 9.11217 1.42914 9.11217 1.22403C9.11217 1.01881 9.03284 0.826569 8.88863 0.682472L8.4297 0.223772C8.28571 0.0794472 8.09324 0 7.88814 0C7.68303 0 7.49079 0.0794472 7.34669 0.223772L1.11077 6.45958C0.966105 6.60413 0.886885 6.79728 0.887454 7.00262C0.886885 7.20886 0.965991 7.40179 1.11077 7.54646L7.34089 13.7762C7.48498 13.9206 7.67723 14 7.88245 14C8.08755 14 8.2798 13.9206 8.42401 13.7762L8.88282 13.3175C9.18137 13.019 9.18137 12.533 8.88282 12.2345L3.65126 7.00296Z" fill="white"/>
</svg>
