<svg width="27" height="35" viewBox="0 0 27 35" fill="none" xmlns="http://www.w3.org/2000/svg">
<path d="M20.327 0H2.71138C1.52859 0 0.56543 0.96383 0.56543 2.1464V32.8532C0.56543 34.0376 1.52859 34.9999 2.71138 34.9999H24.2889C25.4727 34.9999 26.435 34.0376 26.435 32.8532V6.63681L20.327 0ZM20.8335 3.21183L23.5107 6.12146H20.8335V3.21183ZM24.6326 32.8533C24.6326 33.0424 24.4779 33.1976 24.2879 33.1976H2.71138C2.52172 33.1976 2.36784 33.0424 2.36784 32.8533V2.1464C2.36784 1.95689 2.52172 1.8033 2.71138 1.8033H19.0302V7.02304C19.0302 7.52002 19.435 7.92291 19.9323 7.92291H24.6326V32.8533ZM5.54731 9.58624H20.8527C21.2256 9.58624 21.528 9.88865 21.528 10.2615C21.528 10.6343 21.2256 10.9367 20.8527 10.9367H5.54731C5.17455 10.9367 4.87206 10.6343 4.87206 10.2615C4.87206 9.88872 5.17455 9.58624 5.54731 9.58624ZM21.528 14.7992C21.528 15.172 21.2256 15.4745 20.8527 15.4745H5.54731C5.17455 15.4745 4.87206 15.1721 4.87206 14.7992C4.87206 14.4264 5.17455 14.124 5.54731 14.124H20.8527C21.2256 14.124 21.528 14.4264 21.528 14.7992ZM21.528 19.1883C21.528 19.5612 21.2256 19.8636 20.8527 19.8636H5.54731C5.17455 19.8636 4.87206 19.5612 4.87206 19.1883C4.87206 18.8155 5.17455 18.5131 5.54731 18.5131H20.8527C21.2256 18.5131 21.528 18.8155 21.528 19.1883ZM21.528 23.6522C21.528 24.025 21.2256 24.3274 20.8527 24.3274H5.54731C5.17455 24.3274 4.87206 24.025 4.87206 23.6522C4.87206 23.2793 5.17455 22.9769 5.54731 22.9769H20.8527C21.2256 22.9769 21.528 23.2793 21.528 23.6522Z" fill="#4E4E4E"/>
</svg>
