<svg width="25" height="25" viewBox="0 0 25 25" fill="none" xmlns="http://www.w3.org/2000/svg">
<g clip-path="url(#clip0)">
<path d="M21.5161 14.4221C22.3454 15.2317 23.2206 15.9935 23.9644 16.8848C24.293 17.2809 24.604 17.6895 24.842 18.1492C25.1792 18.8026 24.8738 19.5217 24.2879 19.5607L20.6458 19.559C19.7064 19.637 18.9571 19.2588 18.327 18.6166C17.8227 18.1029 17.3558 17.5563 16.8709 17.0253C16.6721 16.8083 16.4641 16.6041 16.2155 16.4427C15.7184 16.12 15.2868 16.2188 15.0026 16.7374C14.7133 17.2648 14.6476 17.8488 14.6192 18.4366C14.5802 19.2942 14.3209 19.5197 13.4595 19.5589C11.6184 19.6458 9.87113 19.3672 8.24794 18.4385C6.81689 17.6197 5.70722 16.4638 4.7413 15.1553C2.86078 12.6073 1.4206 9.80737 0.12626 6.92905C-0.165097 6.28057 0.0479889 5.93247 0.763516 5.92012C1.95165 5.89702 3.13964 5.89868 4.32919 5.91846C4.8121 5.92554 5.13178 6.20249 5.31825 6.65869C5.96107 8.23931 6.74765 9.74311 7.73495 11.137C7.99789 11.5081 8.26601 11.8792 8.64775 12.1404C9.07011 12.4296 9.39169 12.3338 9.59037 11.8633C9.71645 11.5649 9.77167 11.2436 9.80009 10.9241C9.89423 9.82485 9.90663 8.72744 9.74154 7.63203C9.64018 6.94839 9.25512 6.50581 8.57294 6.37647C8.22484 6.3105 8.27665 6.18096 8.44521 5.98228C8.73793 5.6396 9.01327 5.42627 9.56215 5.42627H13.6783C14.3263 5.55415 14.4702 5.84526 14.5589 6.49727L14.5624 11.0694C14.5553 11.3218 14.6885 12.0708 15.1431 12.2379C15.507 12.3568 15.7468 12.0657 15.9652 11.835C16.9507 10.7891 17.654 9.55293 18.2824 8.27295C18.5613 7.71011 18.8011 7.12563 19.0334 6.5416C19.2056 6.10825 19.4758 5.89502 19.9639 5.90444L23.9254 5.90796C24.0429 5.90796 24.1618 5.90967 24.2755 5.92915C24.9431 6.04292 25.126 6.33008 24.9198 6.98193C24.595 8.00464 23.9629 8.85693 23.3449 9.71313C22.6842 10.6272 21.9776 11.5101 21.3225 12.4296C20.7205 13.2695 20.7684 13.6927 21.5161 14.4221Z" fill="#436EAB"/>
</g>
<defs>
<clipPath id="clip0">
<rect width="25" height="25" fill="white"/>
</clipPath>
</defs>
</svg>
