<svg width="25" height="25" viewBox="0 0 25 25" fill="none" xmlns="http://www.w3.org/2000/svg">
<path d="M21.631 0H3.3688C1.5083 0 0 1.50824 0 3.3688V21.6311C0 23.4916 1.50824 24.9999 3.3688 24.9999H12.3756L12.391 16.0663H10.07C9.76839 16.0663 9.52358 15.8224 9.52242 15.5208L9.51129 12.6411C9.51013 12.3378 9.75567 12.0914 10.0589 12.0914H12.3757V9.30886C12.3757 6.0798 14.3478 4.32156 17.2283 4.32156H19.592C19.8944 4.32156 20.1397 4.56673 20.1397 4.86921V7.29736C20.1397 7.59972 19.8946 7.84484 19.5923 7.84502L18.1417 7.84569C16.5752 7.84569 16.2719 8.59009 16.2719 9.68253V12.0914H19.7141C20.0421 12.0914 20.2965 12.3778 20.2579 12.7035L19.9166 15.5832C19.8839 15.8588 19.6502 16.0664 19.3728 16.0664H16.2872L16.2719 25H21.6311C23.4916 25 24.9998 23.4918 24.9998 21.6313V3.3688C24.9998 1.50824 23.4915 0 21.631 0Z" fill="#475993"/>
</svg>
