<svg xmlns="http://www.w3.org/2000/svg" width="20" height="12" viewBox="0 0 20 12" fill="#000000">
  <path d="M19.894 10.5999C19.8698 10.5477 19.8472 10.5044 19.8262 10.4697C19.4792 9.84473 18.8161 9.07764 17.8373 8.16819L17.8166 8.14737L17.8063 8.13716L17.7958 8.12669H17.7853C17.341 7.70321 17.0597 7.41847 16.9419 7.27268C16.7264 6.99498 16.6781 6.71389 16.7959 6.42907C16.8791 6.21389 17.1918 5.75944 17.7331 5.06511C18.0178 4.69714 18.2433 4.40222 18.4099 4.18003C19.611 2.58327 20.1317 1.56291 19.9719 1.11857L19.9099 1.01473C19.8682 0.952215 19.7606 0.895025 19.5872 0.84287C19.4135 0.790823 19.1914 0.782216 18.9206 0.816902L15.9217 0.837618C15.8731 0.820403 15.8037 0.822007 15.7134 0.84287C15.6231 0.863732 15.5779 0.8742 15.5779 0.8742L15.5257 0.900278L15.4843 0.931607C15.4496 0.952324 15.4114 0.98876 15.3697 1.04084C15.3282 1.09274 15.2936 1.15365 15.2658 1.22306C14.9393 2.06306 14.5681 2.84404 14.1515 3.56598C13.8946 3.99647 13.6587 4.36954 13.4433 4.68543C13.2281 5.00121 13.0476 5.23387 12.9019 5.38301C12.756 5.53229 12.6244 5.65188 12.5061 5.74222C12.3881 5.8326 12.298 5.87079 12.2355 5.85682C12.173 5.84285 12.1141 5.82899 12.0583 5.81513C11.9612 5.75262 11.8831 5.6676 11.8242 5.56001C11.765 5.45241 11.7252 5.31699 11.7044 5.15385C11.6836 4.9906 11.6714 4.85018 11.6679 4.73212C11.6646 4.6142 11.6661 4.44741 11.6732 4.23223C11.6804 4.01693 11.6836 3.87126 11.6836 3.79488C11.6836 3.53104 11.6888 3.24469 11.6991 2.93577C11.7096 2.62685 11.7181 2.38208 11.7252 2.20176C11.7323 2.02126 11.7356 1.83029 11.7356 1.62896C11.7356 1.42763 11.7233 1.26974 11.6991 1.15515C11.6752 1.0407 11.6385 0.929602 11.5901 0.821898C11.5414 0.714304 11.4701 0.631074 11.3766 0.571989C11.2829 0.512976 11.1664 0.466145 11.0278 0.43135C10.6598 0.348084 10.1912 0.30304 9.62185 0.296037C8.33069 0.282178 7.50105 0.365554 7.13311 0.546056C6.98733 0.62232 6.85541 0.726522 6.73746 0.858334C6.61247 1.01112 6.59504 1.09449 6.68527 1.10821C7.10186 1.17061 7.39677 1.31989 7.57035 1.55591L7.6329 1.68097C7.68155 1.77121 7.73013 1.93095 7.77875 2.16C7.8273 2.38905 7.85863 2.64242 7.87241 2.91998C7.90706 3.42684 7.90706 3.86072 7.87241 4.22165C7.83765 4.58273 7.80483 4.86382 7.7735 5.06515C7.74217 5.26648 7.69534 5.42962 7.6329 5.55454C7.57035 5.67949 7.52873 5.75586 7.50787 5.78358C7.48704 5.8113 7.46968 5.82877 7.4559 5.83563C7.36566 5.87021 7.27182 5.88782 7.17469 5.88782C7.07742 5.88782 6.95947 5.83917 6.82065 5.74193C6.68188 5.6447 6.53785 5.51113 6.38856 5.34103C6.23928 5.17088 6.07093 4.93312 5.88342 4.6277C5.69606 4.32228 5.50166 3.96131 5.30033 3.54479L5.13376 3.24273C5.02963 3.0484 4.88739 2.76545 4.70689 2.39412C4.52628 2.02265 4.36664 1.66332 4.22786 1.31621C4.17238 1.17043 4.08904 1.05944 3.97799 0.98307L3.92587 0.95174C3.89122 0.924021 3.8356 0.894588 3.7593 0.863221C3.68289 0.831891 3.60316 0.809424 3.51978 0.795601L0.666572 0.816318C0.375011 0.816318 0.177184 0.882369 0.073018 1.01429L0.0313299 1.07669C0.0105041 1.11145 0 1.16696 0 1.24337C0 1.31975 0.0208258 1.41348 0.0625139 1.52447C0.47903 2.50339 0.931983 3.44748 1.42137 4.35689C1.91076 5.26629 2.33603 5.99884 2.69692 6.55388C3.05789 7.10932 3.42583 7.63354 3.80073 8.12629C4.17563 8.61921 4.42379 8.9351 4.54521 9.07388C4.66677 9.21291 4.76225 9.31686 4.83166 9.38627L5.09204 9.63614C5.25865 9.80278 5.5033 10.0024 5.82612 10.2349C6.14901 10.4675 6.50648 10.6966 6.89871 10.9224C7.291 11.1478 7.74739 11.3318 8.2681 11.4741C8.78875 11.6165 9.2955 11.6736 9.78842 11.6461H10.986C11.2288 11.6251 11.4128 11.5487 11.5379 11.4169L11.5793 11.3647C11.6072 11.3233 11.6333 11.2589 11.6573 11.1723C11.6817 11.0855 11.6938 10.9899 11.6938 10.8859C11.6867 10.5875 11.7094 10.3185 11.7614 10.079C11.8133 9.83962 11.8724 9.65912 11.9386 9.53755C12.0047 9.4161 12.0793 9.31361 12.1624 9.23053C12.2456 9.14726 12.3049 9.09682 12.3397 9.07946C12.3743 9.06199 12.4019 9.05014 12.4227 9.04302C12.5893 8.98751 12.7854 9.04127 13.0112 9.20456C13.2369 9.3677 13.4486 9.56914 13.6465 9.80855C13.8444 10.0482 14.0821 10.317 14.3597 10.6155C14.6376 10.914 14.8805 11.136 15.0886 11.282L15.2968 11.4069C15.4359 11.4903 15.6164 11.5667 15.8386 11.6361C16.0604 11.7054 16.2547 11.7228 16.4215 11.6881L19.0872 11.6465C19.3509 11.6465 19.556 11.6029 19.7015 11.5163C19.8474 11.4295 19.934 11.3339 19.9619 11.2299C19.9898 11.1258 19.9913 11.0077 19.9672 10.8757C19.9425 10.744 19.9182 10.6519 19.894 10.5999Z" />
</svg>