<svg xmlns="http://www.w3.org/2000/svg" width="20" height="20" viewBox="0 0 20 20" fill="#000000">
<path d="M15.3247 1.00333L13.2498 1C10.9188 1 9.41241 2.54552 9.41241 4.93762V6.75313H7.32625C7.14598 6.75313 7 6.89927 7 7.07954V9.71001C7 9.89028 7.14615 10.0363 7.32625 10.0363H9.41241V16.6738C9.41241 16.854 9.55839 17 9.73866 17H12.4605C12.6408 17 12.7868 16.8539 12.7868 16.6738V10.0363H15.226C15.4062 10.0363 15.5522 9.89028 15.5522 9.71001L15.5532 7.07954C15.5532 6.99299 15.5188 6.91009 15.4577 6.84884C15.3966 6.78758 15.3134 6.75313 15.2268 6.75313H12.7868V5.2141C12.7868 4.47438 12.963 4.09886 13.9266 4.09886L15.3243 4.09836C15.5044 4.09836 15.6504 3.95222 15.6504 3.77211V1.32958C15.6504 1.14964 15.5046 1.00366 15.3247 1.00333Z"/>
</svg>