<svg width="14" height="14" viewBox="0 0 14 14" fill="none" xmlns="http://www.w3.org/2000/svg">
<path d="M7.00001 6.84692C8.55657 6.84692 9.81854 5.3142 9.81854 3.42348C9.81854 1.53272 9.40422 0 7.00001 0C4.5958 0 4.1814 1.53272 4.1814 3.42348C4.1814 5.3142 5.44336 6.84692 7.00001 6.84692Z" fill="black"/>
<path d="M1.67634 12.0741C1.67586 11.9588 1.67537 12.0416 1.67634 12.0741V12.0741Z" fill="black"/>
<path d="M12.3235 12.1641C12.325 12.1326 12.324 11.9452 12.3235 12.1641V12.1641Z" fill="black"/>
<path d="M12.3174 11.9359C12.2652 8.6422 11.835 7.70368 8.54327 7.1096C8.54327 7.1096 8.07991 7.70004 6.99991 7.70004C5.91991 7.70004 5.45647 7.1096 5.45647 7.1096C2.20067 7.6972 1.74435 8.6218 1.68435 11.8289C1.67943 12.0908 1.67715 12.1045 1.67627 12.0741C1.67647 12.1311 1.67671 12.2364 1.67671 12.4202C1.67671 12.4202 2.46039 14 6.99991 14C11.5393 14 12.3231 12.4202 12.3231 12.4202C12.3231 12.3021 12.3232 12.22 12.3233 12.1642C12.3224 12.183 12.3207 12.1466 12.3174 11.9359Z" fill="black"/>
</svg>
