<?xml version="1.0" standalone="no"?>
<!DOCTYPE svg PUBLIC "-//W3C//DTD SVG 20010904//EN"
 "http://www.w3.org/TR/2001/REC-SVG-20010904/DTD/svg10.dtd">
<svg version="1.0" xmlns="http://www.w3.org/2000/svg"
 width="256.000000pt" height="256.000000pt" viewBox="0 0 256.000000 256.000000"
 preserveAspectRatio="xMidYMid meet">
<metadata>
Created by potrace 1.11, written by Peter Selinger 2001-2013
</metadata>
<g transform="translate(0.000000,256.000000) scale(0.100000,-0.100000)"
fill="#000000" stroke="none">
<path d="M2098 2405 c-2 -2 -23 -5 -48 -8 -25 -3 -101 -15 -170 -25 -69 -11
-161 -25 -205 -31 -96 -14 -118 -17 -215 -36 -41 -8 -86 -17 -100 -19 -14 -3
-50 -10 -80 -16 -30 -6 -68 -14 -85 -16 -16 -3 -48 -10 -70 -16 -22 -5 -47
-12 -55 -13 -8 -2 -53 -13 -100 -25 -47 -11 -94 -23 -105 -25 -123 -26 -619
-157 -668 -177 -16 -6 -42 -25 -59 -42 -32 -32 -83 -131 -92 -176 -2 -14 -9
-45 -15 -70 -26 -106 -35 -385 -17 -523 3 -26 9 -68 12 -95 3 -26 8 -55 10
-64 3 -10 7 -30 10 -45 13 -74 64 -233 91 -288 71 -139 148 -193 243 -171 33
8 132 26 141 26 17 0 -62 -212 -123 -329 -21 -41 -37 -76 -35 -77 3 -3 132 83
161 107 6 5 43 33 81 61 39 29 110 85 159 126 49 40 107 82 129 94 56 28 162
49 327 63 98 8 330 38 393 51 12 2 36 7 52 10 17 2 44 9 60 14 17 5 77 21 135
36 111 28 289 89 472 162 63 25 129 191 156 387 15 111 7 513 -12 625 -3 14
-12 72 -21 130 -47 291 -66 337 -155 377 -29 13 -192 27 -202 18z"/>
</g>
</svg>
